<?xml version="1.0" encoding="UTF-8" standalone="no"?>
<!-- Created with Inkscape (http://www.inkscape.org/) -->

<svg
   xmlns:dc="http://purl.org/dc/elements/1.1/"
   xmlns:cc="http://creativecommons.org/ns#"
   xmlns:rdf="http://www.w3.org/1999/02/22-rdf-syntax-ns#"
   xmlns:svg="http://www.w3.org/2000/svg"
   xmlns="http://www.w3.org/2000/svg"
   xmlns:sodipodi="http://sodipodi.sourceforge.net/DTD/sodipodi-0.dtd"
   xmlns:inkscape="http://www.inkscape.org/namespaces/inkscape"
   width="297mm"
   height="210mm"
   viewBox="0 0 297 210"
   version="1.1"
   id="svg8"
   inkscape:version="0.92.2 (5c3e80d, 2017-08-06)"
   sodipodi:docname="desenhando.svg"
   inkscape:export-filename="/home/daniel-figueiredo/desenhando.svg.png"
   inkscape:export-xdpi="96"
   inkscape:export-ydpi="96">
  <defs
     id="defs2" />
  <sodipodi:namedview
     id="base"
     pagecolor="#ffffff"
     bordercolor="#666666"
     borderopacity="1.0"
     inkscape:pageopacity="0.0"
     inkscape:pageshadow="2"
     inkscape:zoom="0.5"
     inkscape:cx="517.49863"
     inkscape:cy="507.98631"
     inkscape:document-units="mm"
     inkscape:current-layer="layer1"
     showgrid="false"
     showguides="true"
     inkscape:guide-bbox="true"
     inkscape:window-width="1024"
     inkscape:window-height="712"
     inkscape:window-x="0"
     inkscape:window-y="0"
     inkscape:window-maximized="1">
    <sodipodi:guide
       position="169.82736,126.35508"
       orientation="0,1"
       id="guide4581"
       inkscape:locked="false" />
    <sodipodi:guide
       position="168.54936,93.532639"
       orientation="0,1"
       id="guide4583"
       inkscape:locked="false" />
    <sodipodi:guide
       position="160.54111,123.92215"
       orientation="1,0"
       id="guide4585"
       inkscape:locked="false" />
  </sodipodi:namedview>
  <metadata
     id="metadata5">
    <rdf:RDF>
      <cc:Work
         rdf:about="">
        <dc:format>image/svg+xml</dc:format>
        <dc:type
           rdf:resource="http://purl.org/dc/dcmitype/StillImage" />
        <dc:title />
      </cc:Work>
    </rdf:RDF>
  </metadata>
  <g
     inkscape:label="Camada 1"
     inkscape:groupmode="layer"
     id="layer1"
     transform="translate(0,-87)">
    <text
       transform="scale(0.91421876,1.0938301)"
       id="text46"
       y="185.38887"
       x="34.872963"
       style="font-style:normal;font-variant:normal;font-weight:normal;font-stretch:normal;font-size:49.32706451px;line-height:1.25;font-family:Asenine;-inkscape-font-specification:Asenine;letter-spacing:0px;word-spacing:0px;fill:#ff6600;fill-opacity:1;stroke:#ff6600;stroke-width:1.23300004;stroke-miterlimit:4;stroke-dasharray:none;stroke-opacity:1"
       xml:space="preserve"><tspan
         id="tspan48"
         style="font-style:normal;font-variant:normal;font-weight:normal;font-stretch:normal;font-family:Asenine;-inkscape-font-specification:Asenine;fill:#ff6600;fill-opacity:1;stroke:#ff6600;stroke-width:1.23300004;stroke-miterlimit:4;stroke-dasharray:none;stroke-opacity:1"
         y="228.90239"
         x="34.872963"
         sodipodi:role="line" /></text>
    <g
       id="g58"
       transform="matrix(1.1940958,0,0,1.2215927,-21.262157,-45.058259)">
      <path
         sodipodi:nodetypes="ccccccccccccccccccccc"
         inkscape:connector-curvature="0"
         id="path903"
         d="m 170.0275,178.25355 -1.78683,1.91467 v 20.33202 l -1.46898,0.50033 v 1.19017 l 16.47108,5.6e-4 v -1.19072 l -1.56853,-0.50032 5.2e-4,-20.33203 -1.78683,-1.91467 z m 0.55232,1.91467 h 8.54101 l 0.76708,0.82197 v 7.43018 l -0.50633,0.54202 h -8.80176 l -0.55232,-0.59183 v -3.80498 -3.80552 z"
         style="fill:#ffff5a;fill-opacity:1;stroke:none;stroke-width:0.16602747;stroke-miterlimit:4;stroke-dasharray:none;stroke-dashoffset:0;stroke-opacity:1" />
      <g
         id="g52">
        <path
           style="fill:#ff6600;fill-opacity:1;stroke:none;stroke-width:0.74826831px;stroke-linecap:butt;stroke-linejoin:miter;stroke-opacity:1"
           d="m 176.74912,167.5605 h 3.84377 l -4.3858,4.95246 h -1.10971 z"
           id="path73"
           inkscape:connector-curvature="0"
           sodipodi:nodetypes="ccccc" />
        <path
           style="fill:#ff6600;fill-opacity:1;stroke:none;stroke-width:74.99022675;stroke-miterlimit:4;stroke-dasharray:none;stroke-opacity:1"
           d="M 165.10326,203.44393 V 200.5 l 1.66822,-0.61302 v -20.20647 l 2.89959,-3.10704 h 10.67184 l 2.89958,3.10704 v 5.03936 c 0,0 3.22654,0.58574 3.3699,3.47602 v 8.28585 c 0.12175,0.25011 0.33533,0.47851 0.6829,0.4961 0.34756,0.0176 0.64074,-0.12287 0.7875,-0.50765 l -0.0491,-11.28902 c -0.0722,-0.0857 -0.17138,-0.15576 -0.22006,-0.15576 -1.24835,-0.77022 -1.19599,-1.5777 -1.24721,-2.40056 0.0397,-0.15646 -0.0269,-0.21972 -0.48908,-0.4655 -0.78558,-0.41771 -0.88113,-0.38925 -1.04204,-0.82113 -0.16091,-0.43187 0.1954,-1.14923 0.66355,-1.16702 0.14477,-0.001 0.87839,0.34346 1.91745,0.90096 1.85237,0.99386 1.96398,1.06472 2.09551,1.33041 l 0.13199,14.21399 c 0.013,1.39952 -1.298,2.20332 -2.39627,2.19467 -1.09827,-0.008 -2.41755,-0.58814 -2.42636,-2.19438 v -7.50775 c 1.5e-4,-1.75713 -1.17273,-2.36401 -1.77883,-2.48439 v 13.26231 l 1.64196,0.61302 v 2.94393 z m 18.13923,-1.25278 -1e-5,-1.19068 -1.56813,-0.50047 2.6e-4,-20.33182 -1.78682,-1.91467 h -9.8603 l -1.78682,1.91467 V 200.5 l -1.46916,0.50047 v 1.18986 z m -13.21499,-13.82059 -1e-5,-3.80525 v -3.80527 l 0.55235,-0.59186 h 8.54084 l 0.76712,0.822 v 7.42984 l -0.50622,0.54241 h -8.80173 z m 8.22325,-6.44545 h -6.58186 v 5.28019 h 6.58186 z"
           id="path3861"
           inkscape:connector-curvature="0"
           sodipodi:nodetypes="cccccccccczccccczcccszccccccccccccccccccccccccccccccccc" />
      </g>
    </g>
    <rect
       ry="0.59688538"
       y="168.23904"
       x="22.707735"
       height="37.825764"
       width="235.2986"
       id="rect3768"
       style="fill:#ff6600;fill-opacity:0;stroke:#ff6600;stroke-width:1.26027274;stroke-miterlimit:4;stroke-dasharray:30.24654751, 1.26027281;stroke-dashoffset:0;stroke-opacity:1" />
    <text
       xml:space="preserve"
       style="font-style:italic;font-variant:normal;font-weight:normal;font-stretch:normal;font-size:53.64418411px;line-height:1.25;font-family:sans-serif;-inkscape-font-specification:'sans-serif Italic';letter-spacing:0px;word-spacing:0px;fill:#ff6600;fill-opacity:1;stroke:none;stroke-width:0.1;stroke-miterlimit:4;stroke-dasharray:none"
       x="185.80898"
       y="205.31973"
       id="text73"
       transform="scale(1.0097787,0.990316)"><tspan
         sodipodi:role="line"
         id="tspan71"
         x="185.80898"
         y="254.9406"
         style="font-style:normal;font-variant:normal;font-weight:normal;font-stretch:normal;font-size:49.32706451px;font-family:Asenine;-inkscape-font-specification:Asenine;fill:#ff6600;fill-opacity:1;stroke-width:0.1;stroke-miterlimit:4;stroke-dasharray:none" /></text>
    <text
       xml:space="preserve"
       style="font-style:normal;font-variant:normal;font-weight:normal;font-stretch:normal;font-size:53.93043137px;line-height:1.25;font-family:Asenine;-inkscape-font-specification:Asenine;letter-spacing:0px;word-spacing:0px;fill:#ff6600;fill-opacity:1;stroke:none;stroke-width:1.34826064;"
       x="24.093109"
       y="202.91724"
       id="text4575"><tspan
         sodipodi:role="line"
         id="tspan4573"
         x="24.093109"
         y="202.91724"
         style="font-style:normal;font-variant:normal;font-weight:normal;font-stretch:normal;font-family:Asenine;-inkscape-font-specification:Asenine;stroke-width:1.34826064;fill:#ff6600;fill-opacity:1;">COMBUF</tspan></text>
    <text
       xml:space="preserve"
       style="font-style:italic;font-variant:normal;font-weight:normal;font-stretch:normal;font-size:54.40822983px;line-height:1.25;font-family:sans-serif;-inkscape-font-specification:'sans-serif Italic';letter-spacing:0px;word-spacing:0px;fill:#ff6600;fill-opacity:1;stroke:none;stroke-width:1.36020589"
       x="205.07243"
       y="202.91216"
       id="text4579"><tspan
         sodipodi:role="line"
         id="tspan4577"
         x="205.07243"
         y="202.91216"
         style="font-style:normal;font-variant:normal;font-weight:normal;font-stretch:normal;font-family:Asenine;-inkscape-font-specification:Asenine;fill:#ff6600;fill-opacity:1;stroke-width:1.36020589">CIL</tspan></text>
  </g>
</svg>
